<svg width="420" height="300" viewBox="0 0 420 300" fill="none" xmlns="http://www.w3.org/2000/svg">
<g clip-path="url(#clip0_5_252)">
<path opacity="0.7" d="M314.782 110.76C281.202 72.42 292.01 29.7 240.691 15.6C187.722 1.02005 156.123 40.08 96.3059 62.22C56.9506 76.8 30.7962 62.46 18.9154 90.84C-2.45367 141.54 15.7801 223.56 86.2402 262.92C168.251 308.7 379.549 289.92 393.41 208.38C400.258 168.18 345.886 146.34 314.782 110.76Z" fill="#17ACFF"/>
<path opacity="0.7" d="M314.782 110.76C281.202 72.42 292.01 29.7 240.691 15.6C187.722 1.02005 156.123 40.08 96.3059 62.22C56.9506 76.8 30.7962 62.46 18.9154 90.84C-2.45367 141.54 15.7801 223.56 86.2402 262.92C168.251 308.7 379.549 289.92 393.41 208.38C400.258 168.18 345.886 146.34 314.782 110.76Z" fill="white" fill-opacity="0.9"/>
<path d="M195.365 260.524L175.617 252.275L151.37 274.648L138.058 257.212" stroke="#333333" stroke-miterlimit="10" stroke-linecap="round" stroke-linejoin="round"/>
<path d="M250.922 139.224L245.235 152.91L267.546 177.157L259.609 183.157" stroke="#333333" stroke-miterlimit="10" stroke-linecap="round" stroke-linejoin="round"/>
<path d="M256.422 126.1L252.859 134.537" stroke="#333333" stroke-miterlimit="10" stroke-linecap="round" stroke-linejoin="round"/>
<path d="M133.059 77.9798L145.808 83.2917L170.055 60.9189L190.053 87.1664L222.238 79.9171L226.425 112.601L253.547 121.1" stroke="#333333" stroke-miterlimit="10" stroke-linecap="round" stroke-linejoin="round"/>
<path d="M74.6896 114.351L72.8773 106.289L105.562 102.04L115.373 70.5428L123.872 74.105" stroke="#333333" stroke-miterlimit="10" stroke-linecap="round" stroke-linejoin="round"/>
<path d="M77.3143 126.1L76.1895 121.1" stroke="#333333" stroke-miterlimit="10" stroke-linecap="round" stroke-linejoin="round"/>
<path d="M81.5015 218.716L63.5033 213.091L76.1895 182.657L53.8792 158.409L80.0641 138.411L78.2518 130.349" stroke="#333333" stroke-miterlimit="10" stroke-linecap="round" stroke-linejoin="round"/>
<path d="M286.606 175.158L284.606 180.157L279.607 178.157L281.607 173.158L286.606 175.158ZM283.106 171.095L287.169 158.972L292.606 145.286L297.792 147.348L292.356 161.034L286.981 172.658L283.106 171.095Z" fill="#333333"/>
<path opacity="0.2" d="M281.794 245.401C280.294 243.838 279.419 241.838 279.294 239.651C278.982 234.089 277.669 222.34 272.295 213.216C270.233 209.717 264.421 199.905 261.109 196.905C257.796 193.906 252.422 196.218 252.422 196.218C252.422 196.218 250.735 193.718 249.11 190.594C247.422 187.531 245.923 184.657 240.798 184.532C235.674 184.407 235.299 186.469 235.299 188.094C235.299 191.781 238.298 197.03 238.298 197.03C237.361 197.03 235.924 192.968 234.361 187.844C232.799 182.719 228.612 181.907 223.175 183.782C217.738 185.657 220.113 192.468 221.363 196.031C222.675 199.593 222.737 201.905 220.238 202.53C217.738 203.155 216.676 193.781 209.176 180.22C201.677 166.658 201.302 165.346 196.677 162.471C194.24 160.972 192.678 161.596 191.74 162.721C191.678 161.596 191.241 160.534 190.428 159.597C187.616 156.597 184.741 158.597 181.804 161.846V161.784C186.491 156.284 188.741 151.097 185.241 148.285C183.804 147.16 181.804 147.473 179.492 148.66L177.242 144.536L174.367 128.225C173.805 125.1 170.805 122.975 167.68 123.538L121.935 131.599L117.435 132.412C113.061 133.162 110.124 137.349 110.873 141.723L112.436 150.723C109.061 146.035 104.999 145.286 102.937 147.285C99.9371 150.285 103.187 162.221 102.937 167.658C102.687 173.095 95.875 190.969 94.2501 196.156C92.6253 201.28 92.0629 228.402 89.6256 240.339C89.0632 243.088 87.6883 246.526 85.8135 250.213L114.623 274.335C117.748 270.336 120.498 266.774 122.372 263.961C123.31 262.586 142.683 253.837 142.683 253.837L189.178 245.651H189.241C190.491 247.9 191.865 250.588 193.115 254.15C196.053 262.711 210.239 271.898 221.925 276.898C233.611 281.897 240.298 279.397 240.298 279.397C240.298 279.397 246.673 282.522 252.609 285.584C254.859 284.959 257.109 284.334 259.359 283.709C274.295 279.21 288.168 272.96 299.917 265.086C291.793 256.337 285.294 249.025 281.794 245.401ZM206.676 240.339C204.177 241.401 198.74 228.652 194.99 223.028C193.803 221.278 192.178 220.028 190.428 219.341L186.116 194.843L186.491 188.656C188.053 185.532 188.178 183.032 186.491 181.532C186.054 181.095 185.554 180.845 185.116 180.657L184.366 176.282C186.491 173.845 188.866 170.971 190.366 168.096C190.678 174.345 195.053 181.907 195.053 181.907L196.49 186.094L203.364 207.154L205.677 218.528C205.864 229.715 209.176 239.276 206.676 240.339Z" fill="black"/>
<path d="M176.742 154.347C176.617 156.035 176.742 158.784 177.929 162.346" stroke="#263238" stroke-miterlimit="10" stroke-linecap="round" stroke-linejoin="round"/>
<path d="M176.992 152.41C176.992 152.41 176.867 152.785 176.805 153.472" stroke="#263238" stroke-miterlimit="10" stroke-linecap="round" stroke-linejoin="round"/>
<path d="M173.305 140.724C173.305 140.724 173.18 145.598 174.992 149.535" stroke="#263238" stroke-miterlimit="10" stroke-linecap="round" stroke-linejoin="round"/>
<path d="M180.679 170.971C183.366 173.408 181.617 178.22 176.43 184.282C171.243 190.406 160.181 202.467 155.494 210.842C150.807 219.216 151.87 230.84 124.872 249.088C123.497 250.025 120.748 252.025 119.81 253.462C116.685 258.149 114.936 264.711 111.249 272.336C108.624 270.711 106.124 269.023 103.812 267.211C94.3752 259.962 86.1885 251.338 79.1267 241.714C81.439 237.277 83.3138 233.089 83.9387 229.902L99.6247 182.469L107.811 179.22L121.622 166.909L144.433 146.536C144.433 146.536 160.556 130.662 165.681 135.537C170.743 140.411 159.556 150.785 153.682 154.66C147.807 158.534 143.495 166.034 133.746 175.783C133.934 175.72 136.496 174.908 139.246 172.096C142.12 169.221 148.37 161.347 152.682 157.659C156.932 153.972 173.492 133.037 179.554 137.786C184.929 142.036 176.68 151.91 167.118 160.097C157.556 168.221 155.744 172.72 145.37 183.719L143.933 185.344C143.933 185.344 147.995 182.907 154.307 175.283C160.619 167.658 164.556 163.659 169.743 158.597C174.93 153.535 179.992 144.036 184.679 149.16C189.991 154.91 178.242 165.659 175.117 169.783C171.993 173.97 151.37 190.719 150.495 196.531C150.62 196.343 152.932 192.906 155.557 190.156C158.306 187.282 167.555 178.032 171.93 173.97C176.305 169.846 178.429 168.908 180.679 170.971Z" fill="white"/>
<path opacity="0.5" d="M107.686 187.719V174.97L160.244 130.537L172.992 134.537L181.429 182.594L148.307 230.652L132.184 248.4C132.184 248.4 120.872 246.525 121.247 230.652C121.622 214.716 107.686 187.719 107.686 187.719Z" fill="#6F93A8"/>
<path d="M79.8141 242.089C82.1264 237.652 84.0012 233.464 84.6261 230.277L100.312 182.844L108.499 179.595L122.31 167.284L145.058 146.911C145.058 146.911 161.181 131.037 166.306 135.912C171.368 140.786 160.181 151.16 154.307 155.035C148.432 158.909 144.12 166.409 134.371 176.158C134.559 176.095 137.121 175.283 139.871 172.471C142.745 169.596 148.995 161.722 153.307 158.034C157.556 154.347 174.117 133.412 180.179 138.161C185.554 142.411 177.304 152.285 167.743 160.472C158.181 168.596 156.369 173.095 145.995 184.094L144.558 185.719C144.558 185.719 148.62 183.282 154.932 175.658C161.244 168.033 165.181 164.034 170.368 158.972C175.555 153.91 180.617 144.411 185.304 149.535C190.616 155.285 178.867 166.034 175.742 170.158C172.617 174.345 151.994 191.094 151.12 196.906C151.245 196.718 153.557 193.281 156.182 190.531C158.931 187.656 168.18 178.407 172.555 174.345C176.929 170.283 179.054 169.346 181.304 171.408C183.991 173.845 182.241 178.657 177.054 184.719C171.867 190.844 160.806 202.905 156.119 211.279C151.432 219.653 152.494 231.277 125.497 249.525C124.122 250.463 121.372 252.463 120.435 253.9C117.31 258.587 115.561 265.149 111.873 272.773" stroke="#263238" stroke-miterlimit="10"/>
<path d="M102.937 240.651C106.436 243.589 112.061 248.963 113.498 254.275" stroke="#263238" stroke-miterlimit="10" stroke-linecap="round" stroke-linejoin="round"/>
<path d="M100.062 238.401C100.062 238.401 100.624 238.776 101.437 239.464" stroke="#263238" stroke-miterlimit="10" stroke-linecap="round" stroke-linejoin="round"/>
<path d="M79.6266 242.526C81.9389 238.089 83.8137 233.902 84.4387 230.715C86.8759 218.841 87.4384 191.656 89.0632 186.532C90.6881 181.407 97.4999 163.471 97.7499 158.034C97.9998 152.597 94.7502 140.661 97.7499 137.661C100.75 134.662 108.061 137.661 111.311 150.41C114.561 163.159 108.874 182.657 111.311 187.406C113.748 192.156 114.936 189.281 121.248 210.654C127.559 232.027 121.997 237.464 121.997 237.464" fill="white"/>
<path d="M79.6266 242.526C81.9389 238.089 83.8137 233.902 84.4387 230.715C86.8759 218.841 87.4384 191.656 89.0632 186.532C90.6881 181.407 97.4999 163.471 97.7499 158.034C97.9998 152.597 94.7502 140.661 97.7499 137.661C100.75 134.662 108.061 137.661 111.311 150.41C114.561 163.159 108.874 182.657 111.311 187.406C113.748 192.156 114.936 189.281 121.248 210.654C127.559 232.027 121.997 237.464 121.997 237.464" stroke="#263238" stroke-miterlimit="10"/>
<path d="M103.249 140.411C103.499 142.973 103.437 145.723 102.062 146.91C100.687 148.098 99.6246 149.098 98.9372 149.723C98.4997 150.16 97.8123 149.91 97.6248 149.348L97.3748 148.348" stroke="#263238" stroke-miterlimit="10" stroke-linecap="round" stroke-linejoin="round"/>
<path d="M102.937 138.036C102.999 138.474 103.062 138.911 103.187 139.411" stroke="#263238" stroke-miterlimit="10" stroke-linecap="round" stroke-linejoin="round"/>
<path d="M99.4372 159.222C100.437 158.472 102.187 157.659 104.437 157.784" stroke="#263238" stroke-miterlimit="10" stroke-linecap="round" stroke-linejoin="round"/>
<path d="M98.4373 160.159C98.4373 160.159 98.5622 159.972 98.8747 159.784" stroke="#263238" stroke-miterlimit="10" stroke-linecap="round" stroke-linejoin="round"/>
<path d="M82.9387 178.532C83.0012 177.72 83.0637 176.908 83.1262 176.158" stroke="#263238" stroke-miterlimit="10" stroke-linecap="round" stroke-linejoin="round"/>
<path d="M81.8138 193.531C82.1263 189.281 82.4388 184.969 82.7512 181.095" stroke="#263238" stroke-miterlimit="10" stroke-linecap="round" stroke-linejoin="round"/>
<path d="M80.314 207.842C80.814 204.592 81.2514 200.655 81.6264 196.468" stroke="#263238" stroke-miterlimit="10" stroke-linecap="round" stroke-linejoin="round"/>
<path d="M79.8141 210.717C79.8766 210.342 80.0016 209.904 80.0641 209.467" stroke="#263238" stroke-miterlimit="10" stroke-linecap="round" stroke-linejoin="round"/>
<path d="M162.306 247.213L168.18 246.151" stroke="#263238" stroke-miterlimit="10" stroke-linecap="round" stroke-linejoin="round"/>
<path d="M139.871 251.15L160.431 247.526" stroke="#263238" stroke-miterlimit="10" stroke-linecap="round" stroke-linejoin="round"/>
<path d="M135.496 251.9L137.808 251.525" stroke="#263238" stroke-miterlimit="10" stroke-linecap="round" stroke-linejoin="round"/>
<path d="M178.492 118.476L178.804 120.226" stroke="#263238" stroke-miterlimit="10" stroke-linecap="round" stroke-linejoin="round"/>
<path d="M166.993 106.352C171.992 105.477 176.742 108.789 177.617 113.789L178.117 116.726" stroke="#263238" stroke-miterlimit="10" stroke-linecap="round" stroke-linejoin="round"/>
<path d="M138.058 111.476L164.868 106.727" stroke="#263238" stroke-miterlimit="10" stroke-linecap="round" stroke-linejoin="round"/>
<path d="M134.371 112.101L136.121 111.789" stroke="#263238" stroke-miterlimit="10" stroke-linecap="round" stroke-linejoin="round"/>
<path d="M119.248 121.1L114.748 121.913C110.374 122.663 107.436 126.85 108.186 131.224L126.934 237.401C127.684 241.776 131.871 244.713 136.246 243.963L140.746 243.151L119.248 121.1Z" fill="#999999" stroke="#263238" stroke-miterlimit="10" stroke-linecap="round" stroke-linejoin="round"/>
<path d="M186.491 235.089L137.996 243.651C134.871 244.213 131.871 242.088 131.309 238.964L111.811 128.287C111.248 125.162 113.373 122.163 116.498 121.6L126.434 119.851L165.056 113.039C168.18 112.476 171.18 114.601 171.742 117.726L177.304 149.473L191.241 228.402C191.74 231.527 189.678 234.527 186.491 235.089Z" fill="#263238" stroke="#263238" stroke-miterlimit="10" stroke-linecap="round" stroke-linejoin="round"/>
<path d="M163.368 116.788L153.182 118.601L153.369 121.163C153.494 122.85 152.307 124.413 150.62 124.725L134.059 127.662C132.371 127.975 130.747 126.912 130.247 125.288L129.559 122.788L119.373 124.6C116.873 125.038 115.186 127.475 115.623 129.975L134.371 236.152C134.809 238.651 137.246 240.339 139.746 239.901L183.741 232.152C186.241 231.715 187.928 229.277 187.491 226.778L168.743 120.601C168.243 118.038 165.868 116.351 163.368 116.788Z" fill="#0097EC"/>
<mask id="mask0_5_252" style="mask-type:luminance" maskUnits="userSpaceOnUse" x="115" y="116" width="73" height="124">
<path d="M163.368 116.788L153.182 118.601L153.369 121.163C153.494 122.85 152.307 124.413 150.62 124.725L134.059 127.662C132.371 127.975 130.747 126.912 130.247 125.288L129.559 122.788L119.373 124.6C116.873 125.038 115.186 127.475 115.623 129.975L134.371 236.152C134.809 238.651 137.246 240.339 139.746 239.901L183.741 232.152C186.241 231.715 187.928 229.277 187.491 226.778L168.743 120.601C168.243 118.038 165.868 116.351 163.368 116.788Z" fill="white"/>
</mask>
<g mask="url(#mask0_5_252)">
<path opacity="0.3" d="M147.12 247.463H124.31L151.619 105.227H174.492L147.12 247.463Z" fill="white"/>
</g>
<path d="M163.368 116.788L153.182 118.601L153.369 121.163C153.494 122.85 152.307 124.413 150.62 124.725L134.059 127.662C132.371 127.975 130.747 126.912 130.247 125.288L129.559 122.788L119.373 124.6C116.873 125.038 115.186 127.475 115.623 129.975L134.371 236.152C134.809 238.651 137.246 240.339 139.746 239.901L183.741 232.152C186.241 231.715 187.928 229.277 187.491 226.778L168.743 120.601C168.243 118.038 165.868 116.351 163.368 116.788Z" stroke="#263238" stroke-miterlimit="10" stroke-linecap="round" stroke-linejoin="round"/>
<path d="M138.058 123.413C138.183 124.163 137.683 124.85 136.996 124.975C136.246 125.1 135.559 124.6 135.434 123.913C135.309 123.163 135.809 122.475 136.496 122.35C137.246 122.163 137.933 122.663 138.058 123.413Z" fill="#0097EC" stroke="#263238" stroke-miterlimit="10" stroke-linecap="round" stroke-linejoin="round"/>
<path d="M147.182 121.038C146.995 121.101 140.621 122.163 140.433 122.226C140.058 122.288 139.808 122.663 139.871 123.038C139.933 123.413 140.308 123.663 140.683 123.6C140.933 123.538 147.182 122.475 147.432 122.413C147.807 122.351 148.057 121.976 147.995 121.601C147.932 121.226 147.557 120.976 147.182 121.038Z" fill="#0097EC" stroke="#263238" stroke-miterlimit="10" stroke-linecap="round" stroke-linejoin="round"/>
<path d="M167.993 230.652C167.805 230.715 154.182 233.089 153.932 233.152C153.557 233.214 153.307 233.589 153.369 233.964C153.432 234.339 153.807 234.589 154.182 234.527C154.432 234.464 167.993 232.089 168.243 232.027C168.618 231.965 168.868 231.59 168.805 231.215C168.68 230.84 168.368 230.59 167.993 230.652Z" fill="white"/>
<path d="M163.493 135.724L125.622 142.411C123.685 142.723 121.872 141.473 121.497 139.536C121.185 137.599 122.435 135.786 124.372 135.412L162.243 128.725C164.181 128.412 165.993 129.662 166.368 131.599C166.68 133.537 165.431 135.412 163.493 135.724Z" fill="white" stroke="#263238" stroke-miterlimit="10" stroke-linecap="round" stroke-linejoin="round"/>
<path opacity="0.2" d="M171.617 181.719L133.746 188.406C131.809 188.719 129.997 187.469 129.622 185.532C129.309 183.594 130.559 181.782 132.496 181.407L170.368 174.72C172.305 174.408 174.117 175.658 174.492 177.595C174.805 179.532 173.555 181.344 171.617 181.719Z" fill="#263238"/>
<path opacity="0.2" d="M164.493 194.343L135.684 199.405C133.746 199.718 131.934 198.468 131.559 196.531C131.246 194.593 132.496 192.781 134.434 192.406L163.243 187.344C165.181 187.031 166.993 188.281 167.368 190.219C167.68 192.218 166.43 194.031 164.493 194.343Z" fill="#263238"/>
<path opacity="0.2" d="M167.671 139.207L122.867 147.105L128.291 177.877L173.095 169.979L167.671 139.207Z" fill="black"/>
<path opacity="0.5" d="M165.056 200.03L133.871 205.53C133.496 205.592 133.121 205.342 133.059 204.967C132.996 204.592 133.246 204.217 133.621 204.155L164.806 198.655C165.181 198.593 165.556 198.843 165.618 199.218C165.681 199.593 165.431 199.968 165.056 200.03Z" fill="#263238"/>
<path opacity="0.5" d="M172.742 204.405L134.871 211.092C134.496 211.154 134.121 210.904 134.059 210.529C133.996 210.154 134.246 209.779 134.621 209.717L172.492 203.03C172.867 202.967 173.242 203.217 173.305 203.592C173.43 203.967 173.117 204.342 172.742 204.405Z" fill="#263238"/>
<path opacity="0.5" d="M163.868 211.717L135.871 216.654C135.496 216.716 135.121 216.466 135.059 216.091C134.996 215.716 135.246 215.341 135.621 215.279L163.618 210.342C163.993 210.279 164.368 210.529 164.431 210.904C164.493 211.279 164.243 211.654 163.868 211.717Z" fill="#263238"/>
<path opacity="0.5" d="M168.555 216.591L136.808 222.216C136.433 222.278 136.059 222.028 135.996 221.653C135.934 221.278 136.184 220.903 136.558 220.841L168.305 215.216C168.68 215.154 169.055 215.404 169.118 215.779C169.18 216.154 168.93 216.529 168.555 216.591Z" fill="#263238"/>
<path opacity="0.5" d="M172.117 221.716L137.808 227.778C137.433 227.84 137.058 227.59 136.996 227.215C136.933 226.84 137.183 226.465 137.558 226.403L171.867 220.341C172.242 220.278 172.617 220.528 172.68 220.903C172.805 221.278 172.555 221.653 172.117 221.716Z" fill="#263238"/>
<path d="M161.369 133.599C160.994 133.662 160.556 133.599 160.244 133.412L160.056 134.224L159.431 135.099C159.369 135.162 159.306 135.224 159.181 135.224C158.931 135.287 158.681 135.099 158.681 134.849C158.681 134.724 158.681 134.662 158.744 134.537L159.369 133.662L160.056 133.224C159.744 132.974 159.556 132.599 159.494 132.224C159.306 131.349 159.931 130.475 160.869 130.287C161.743 130.1 162.618 130.724 162.806 131.662C162.868 132.099 162.806 132.537 162.556 132.912C162.181 133.287 161.806 133.537 161.369 133.599ZM161.306 132.974C161.868 132.849 162.243 132.349 162.118 131.787C161.993 131.224 161.493 130.849 160.931 130.974C160.369 131.099 159.994 131.599 160.119 132.162C160.181 132.412 160.306 132.662 160.556 132.849C160.744 132.912 160.994 132.974 161.306 132.974Z" fill="#0097EC"/>
<path opacity="0.2" d="M148.682 160.471L156.619 150.098L136.121 153.722C134.121 154.097 132.184 152.722 131.809 150.722L126.372 119.851L164.993 113.039C168.118 112.476 171.118 114.601 171.68 117.726L177.242 149.473L148.682 160.471Z" fill="black"/>
<path d="M280.107 117.851L197.302 132.412L148.682 160.409L162.181 138.599L141.683 142.223C139.683 142.598 137.746 141.224 137.371 139.224L119.873 39.9211C119.498 37.9213 120.873 35.984 122.872 35.609L261.296 11.2364C263.296 10.8614 265.233 12.2363 265.608 14.2361L283.106 113.539C283.544 115.539 282.169 117.476 280.107 117.851Z" fill="#999999" stroke="#263238" stroke-miterlimit="10" stroke-linecap="round" stroke-linejoin="round"/>
<path opacity="0.6" d="M276.67 114.039C277.857 113.851 278.669 112.726 278.419 111.539L261.859 17.6733C261.671 16.4859 260.546 15.6735 259.359 15.9235L126.434 39.3587C125.247 39.5461 124.435 40.671 124.685 41.8584L141.246 135.662C141.433 136.849 142.558 137.661 143.745 137.411L276.67 114.039Z" fill="white"/>
<path d="M278.419 111.539L261.859 17.6733C261.671 16.4859 260.546 15.6735 259.359 15.9235L126.434 39.3587C125.247 39.5461 124.435 40.671 124.685 41.8584L141.246 135.662C141.433 136.849 142.558 137.661 143.745 137.411L276.67 114.039C277.794 113.851 278.607 112.726 278.419 111.539Z" fill="#0097EC"/>
<mask id="mask1_5_252" style="mask-type:luminance" maskUnits="userSpaceOnUse" x="124" y="15" width="155" height="123">
<path d="M278.419 111.539L261.859 17.6733C261.671 16.4859 260.546 15.6735 259.359 15.9235L126.434 39.3587C125.247 39.5461 124.435 40.671 124.685 41.8584L141.246 135.662C141.433 136.849 142.558 137.661 143.745 137.411L276.67 114.039C277.794 113.851 278.607 112.726 278.419 111.539Z" fill="white"/>
</mask>
<g mask="url(#mask1_5_252)">
<path opacity="0.4" d="M205.427 218.028H152.432L215.801 -28.0098H268.795L205.427 218.028Z" fill="white"/>
</g>
<path d="M278.419 111.539L261.859 17.6733C261.671 16.4859 260.546 15.6735 259.359 15.9235L126.434 39.3587C125.247 39.5461 124.435 40.671 124.685 41.8584L141.246 135.662C141.433 136.849 142.558 137.661 143.745 137.411L276.67 114.039C277.794 113.851 278.607 112.726 278.419 111.539Z" stroke="#263238" stroke-miterlimit="10" stroke-linecap="round" stroke-linejoin="round"/>
<path d="M270.795 13.7361C271.483 17.4857 268.92 21.1103 265.171 21.7353C261.421 22.4227 257.797 19.8605 257.172 16.1108C256.484 12.3612 259.046 8.73657 262.796 8.11164C266.546 7.4242 270.108 9.98645 270.795 13.7361Z" fill="#0097EC" stroke="#263238" stroke-miterlimit="10" stroke-linecap="round" stroke-linejoin="round"/>
<path d="M260.671 12.6112L267.295 17.2357" stroke="#263238" stroke-width="1.5" stroke-miterlimit="10" stroke-linecap="round" stroke-linejoin="round"/>
<path d="M266.296 11.6113L261.671 18.2357" stroke="#263238" stroke-width="1.5" stroke-miterlimit="10" stroke-linecap="round" stroke-linejoin="round"/>
<g opacity="0.2">
<path d="M191.741 42.6706L199.99 35.0464L206.864 44.0455L217.863 41.5457L219.3 52.7321L230.049 56.1068L225.737 66.5433L233.361 74.7925L224.425 81.6668L226.862 92.6657L215.676 94.103L212.301 104.852L201.927 100.54L193.615 108.164L186.741 99.2275L175.742 101.665L174.305 90.4784L163.556 87.1037L167.868 76.7298L160.244 68.4181L169.243 61.5438L166.743 50.5449L177.929 49.1075L181.304 38.3586L191.741 42.6706Z" fill="black"/>
</g>
<path d="M193.615 38.9211L201.864 31.2969L208.739 40.296L219.738 37.7962L221.175 48.9826L231.924 52.3573L227.612 62.7938L235.236 71.0429L226.3 77.9173L228.737 88.9162L217.55 90.3535L214.176 101.102L203.802 96.7904L195.49 104.415L188.616 95.478L177.617 97.9153L176.18 86.7289L165.431 83.3542L169.743 72.9803L162.118 64.6686L171.118 57.7943L168.618 46.7953L179.804 45.358L183.179 34.609L193.615 38.9211Z" fill="white" stroke="#263238" stroke-miterlimit="10" stroke-linecap="round" stroke-linejoin="round"/>
<path d="M228.174 115.539L189.303 122.413C187.991 122.663 186.678 121.726 186.428 120.413L185.429 114.601C185.179 113.289 186.116 111.977 187.428 111.727L226.3 104.852C227.612 104.602 228.924 105.54 229.174 106.852L230.174 112.664C230.424 114.039 229.487 115.289 228.174 115.539Z" fill="#263238"/>
<path d="M228.174 115.539L189.303 122.413C187.991 122.663 186.678 121.726 186.428 120.413L185.429 114.601C185.179 113.289 186.116 111.977 187.428 111.727L226.3 104.852C227.612 104.602 228.924 105.54 229.174 106.852L230.174 112.664C230.424 114.039 229.487 115.289 228.174 115.539Z" stroke="#263238" stroke-miterlimit="10" stroke-linecap="round" stroke-linejoin="round"/>
<path d="M197.865 116.539L197.49 114.289C197.365 113.664 197.615 113.226 198.24 113.101C198.865 112.976 199.24 113.289 199.365 113.976L199.427 114.414L198.802 114.539L198.74 114.039C198.677 113.789 198.552 113.664 198.365 113.726C198.177 113.789 198.052 113.914 198.115 114.164L198.552 116.476C198.615 116.726 198.74 116.851 198.927 116.789C199.115 116.726 199.24 116.601 199.177 116.351L199.052 115.726L199.677 115.601L199.802 116.164C199.927 116.789 199.677 117.226 199.052 117.351C198.365 117.538 197.99 117.226 197.865 116.539Z" fill="#0097EC"/>
<path d="M199.615 112.976L200.24 112.851L200.865 116.414L201.927 116.226L202.052 116.789L200.302 117.101L199.615 112.976Z" fill="#0097EC"/>
<path d="M201.615 112.602L202.24 112.477L202.989 116.601L202.365 116.726L201.615 112.602Z" fill="#0097EC"/>
<path d="M203.302 115.601L202.927 113.351C202.802 112.726 203.052 112.289 203.677 112.164C204.302 112.039 204.677 112.351 204.802 113.039L204.864 113.476L204.239 113.601L204.177 113.101C204.114 112.851 203.989 112.726 203.802 112.789C203.614 112.851 203.489 112.976 203.552 113.226L203.989 115.538C204.052 115.788 204.177 115.913 204.364 115.851C204.552 115.788 204.677 115.663 204.614 115.413L204.489 114.789L205.114 114.664L205.239 115.226C205.364 115.851 205.114 116.288 204.489 116.413C203.802 116.601 203.427 116.226 203.302 115.601Z" fill="#0097EC"/>
<path d="M205.052 112.039L205.677 111.914L205.989 113.664L206.489 111.789L207.114 111.664L206.614 113.351L207.864 115.851L207.177 115.976L206.302 114.226L206.114 114.789L206.364 116.101L205.739 116.226L205.052 112.039Z" fill="#0097EC"/>
<path d="M208.426 111.414L209.051 111.289L209.364 112.976L210.051 112.851L209.739 111.164L210.364 111.039L211.114 115.164L210.489 115.289L210.176 113.414L209.489 113.539L209.801 115.414L209.176 115.538L208.426 111.414Z" fill="#0097EC"/>
<path d="M210.926 110.977L212.676 110.664L212.801 111.227L211.676 111.476L211.864 112.601L212.739 112.414L212.864 112.976L211.989 113.164L212.239 114.414L213.364 114.226L213.489 114.789L211.739 115.101L210.926 110.977Z" fill="#0097EC"/>
<path d="M213.113 110.602L214.051 110.414C214.738 110.289 215.051 110.539 215.176 111.226L215.238 111.476C215.301 111.914 215.238 112.226 214.926 112.351C215.238 112.414 215.426 112.664 215.488 113.164L215.613 113.914C215.676 114.101 215.676 114.289 215.801 114.414L215.113 114.539C215.051 114.414 215.051 114.351 214.988 114.039L214.863 113.289C214.801 112.914 214.676 112.789 214.363 112.851L214.113 112.914L214.426 114.664L213.801 114.789L213.113 110.602ZM214.301 112.226C214.551 112.164 214.676 112.039 214.613 111.726L214.551 111.414C214.488 111.101 214.363 110.976 214.113 111.039L213.801 111.101L213.988 112.289L214.301 112.226Z" fill="#0097EC"/>
<path d="M215.488 110.164L217.238 109.852L217.363 110.414L216.238 110.601L216.426 111.726L217.301 111.539L217.426 112.101L216.551 112.289L216.801 113.539L217.926 113.351L218.051 113.914L216.301 114.226L215.488 110.164Z" fill="#0097EC"/>
<path d="M177.804 77.0424C177.804 76.9799 177.742 76.9174 177.742 76.9174C177.742 76.8549 177.679 76.7924 177.679 76.7299C177.679 76.6674 177.617 76.5424 177.617 76.4799C177.617 76.355 177.554 76.23 177.554 76.0425L177.304 74.7301C177.242 74.3552 177.117 74.1052 176.929 73.9177C176.742 73.7927 176.554 73.7302 176.242 73.7927L175.805 73.8552L176.429 77.2299L175.117 77.4799L173.68 69.1682L175.617 68.7932C176.304 68.6682 176.804 68.7307 177.179 68.9807C177.554 69.2307 177.804 69.6681 177.867 70.3556L177.992 70.9805C178.117 71.8554 177.929 72.4178 177.429 72.7928C177.804 72.8553 178.054 73.0428 178.242 73.3553C178.429 73.6677 178.554 73.9802 178.617 74.4176L178.867 75.6675C178.929 75.855 178.929 76.0425 178.992 76.23C179.054 76.355 179.117 76.5424 179.179 76.6674L177.804 77.0424ZM175.117 70.1681L175.555 72.7303L176.055 72.6678C176.304 72.6053 176.492 72.5428 176.617 72.3554C176.742 72.2304 176.742 71.9804 176.679 71.6054L176.554 70.793C176.492 70.4805 176.429 70.2931 176.304 70.1681C176.179 70.0431 175.992 70.0431 175.742 70.0431L175.117 70.1681Z" fill="#263238"/>
<path d="M180.304 71.668L182.116 71.3555L182.304 72.5429L180.492 72.8553L180.929 75.2926L183.179 74.9176L183.366 76.105L179.804 76.7299L178.367 68.4183L181.929 67.7933L182.116 68.9807L179.867 69.3557L180.304 71.668Z" fill="#263238"/>
<path d="M185.366 70.918L187.178 70.6055L187.616 73.2303C187.741 73.9177 187.678 74.4177 187.366 74.8551C187.116 75.2926 186.679 75.5425 185.991 75.6675C185.366 75.7925 184.866 75.6675 184.429 75.3551C184.054 75.0426 183.804 74.5426 183.679 73.9177L182.929 69.6056C182.804 68.9182 182.866 68.4183 183.179 67.9808C183.429 67.5433 183.866 67.2934 184.554 67.1684C185.179 67.0434 185.679 67.1684 186.116 67.4808C186.491 67.7933 186.741 68.2933 186.866 68.9182L186.991 69.7306L185.741 69.9181L185.554 69.0432C185.491 68.7307 185.429 68.5432 185.241 68.4183C185.116 68.2933 184.929 68.2933 184.741 68.2933C184.554 68.2933 184.366 68.4183 184.304 68.5432C184.179 68.6682 184.179 68.9182 184.241 69.2307L185.054 73.7302C185.116 74.0427 185.179 74.2302 185.366 74.3552C185.554 74.4802 185.679 74.4802 185.866 74.4177C186.054 74.3552 186.241 74.2927 186.304 74.1677C186.429 74.0427 186.429 73.7927 186.366 73.4803L186.116 71.9804L185.554 72.1054L185.366 70.918Z" fill="#263238"/>
<path d="M187.366 66.7934L188.678 66.5435L190.116 74.8551L188.803 75.1051L187.366 66.7934Z" fill="#263238"/>
<path d="M189.803 68.4183C189.678 67.7308 189.741 67.2309 189.991 66.7934C190.241 66.356 190.678 66.106 191.366 65.981C191.99 65.856 192.49 65.981 192.928 66.2935C193.303 66.6059 193.553 67.1059 193.678 67.7308L193.74 68.0433L192.49 68.2308L192.428 67.8558C192.365 67.5433 192.303 67.3559 192.115 67.2309C191.99 67.1059 191.803 67.1059 191.615 67.1059C191.428 67.1684 191.241 67.2309 191.178 67.3559C191.116 67.4809 191.053 67.7308 191.116 68.0433C191.178 68.3558 191.303 68.5432 191.428 68.7307C191.615 68.9182 191.803 69.1057 191.99 69.2932C192.24 69.4807 192.428 69.6056 192.678 69.7931C192.928 69.9181 193.178 70.1056 193.428 70.2931C193.678 70.4806 193.865 70.7305 194.053 70.9805C194.24 71.2305 194.365 71.6054 194.428 71.9804C194.553 72.6678 194.49 73.1678 194.178 73.6052C193.928 74.0427 193.49 74.2927 192.803 74.4177C192.178 74.5427 191.678 74.4177 191.241 74.1052C190.866 73.7927 190.616 73.2928 190.491 72.6678L190.366 72.1054L191.615 71.9179L191.74 72.5429C191.803 72.8553 191.865 73.0428 192.053 73.1678C192.178 73.2928 192.365 73.2928 192.553 73.2303C192.74 73.1678 192.928 73.1053 192.99 72.9803C193.115 72.8553 193.115 72.6053 193.053 72.2929C192.99 71.9804 192.928 71.7929 192.74 71.6054C192.553 71.418 192.365 71.2305 192.178 71.043C191.928 70.8555 191.74 70.7305 191.49 70.5431C191.241 70.4181 190.991 70.2306 190.741 70.0431C190.491 69.8556 190.303 69.6056 190.116 69.3557C189.991 69.1682 189.866 68.7932 189.803 68.4183Z" fill="#263238"/>
<path d="M193.678 65.6684L197.677 64.981L197.865 66.1683L196.49 66.4183L197.74 73.5426L196.427 73.7926L195.178 66.6683L193.803 66.9183L193.678 65.6684Z" fill="#263238"/>
<path d="M202.489 72.6678C202.489 72.6053 202.427 72.5428 202.427 72.5428C202.427 72.4803 202.364 72.4178 202.364 72.3553C202.364 72.2928 202.302 72.1678 202.302 72.1053C202.302 71.9803 202.239 71.8553 202.239 71.6679L201.99 70.3555C201.927 69.9805 201.802 69.7305 201.615 69.5431C201.427 69.4181 201.24 69.3556 200.927 69.4181L200.49 69.4806L201.115 72.8552L199.802 73.1052L198.365 64.7935L200.302 64.4186C200.99 64.2936 201.49 64.3561 201.865 64.6061C202.239 64.856 202.489 65.2935 202.552 65.9809L202.677 66.6059C202.802 67.4808 202.614 68.0432 202.114 68.4182C202.489 68.4807 202.739 68.6682 202.927 68.9806C203.114 69.2931 203.239 69.6056 203.302 70.043L203.552 71.2929C203.614 71.4804 203.614 71.6679 203.677 71.8553C203.739 71.9803 203.802 72.1678 203.864 72.2928L202.489 72.6678ZM199.802 65.8559L200.24 68.4182L200.74 68.3557C200.99 68.2932 201.177 68.2307 201.302 68.0432C201.427 67.9182 201.427 67.6683 201.365 67.2933L201.24 66.4809C201.177 66.1684 201.115 65.9809 200.99 65.8559C200.865 65.7309 200.677 65.7309 200.427 65.7309L199.802 65.8559Z" fill="#263238"/>
<path d="M208.739 71.6055L207.426 71.8555L206.926 70.4182L205.302 70.7306L205.364 72.293L204.177 72.4804L204.052 63.9813L205.989 63.6688L208.739 71.6055ZM205.302 69.4807L206.551 69.2308L205.177 65.1687L205.302 69.4807Z" fill="#263238"/>
<path d="M207.489 63.2311L211.489 62.5437L211.676 63.7311L210.301 63.9811L211.551 71.1054L210.239 71.3553L208.989 64.231L207.614 64.481L207.489 63.2311Z" fill="#263238"/>
<path d="M212.114 62.4187L213.426 62.1687L214.863 70.4804L213.551 70.7304L212.114 62.4187Z" fill="#263238"/>
<path d="M214.613 64.0437C214.488 63.3562 214.551 62.8563 214.863 62.4188C215.113 61.9814 215.613 61.7314 216.238 61.6064C216.863 61.4814 217.425 61.6064 217.8 61.8564C218.175 62.1689 218.488 62.6688 218.613 63.2937L219.363 67.6058C219.488 68.2932 219.425 68.7932 219.113 69.2307C218.863 69.6681 218.363 69.9181 217.738 70.0431C217.113 70.1681 216.551 70.0431 216.176 69.7931C215.801 69.4806 215.488 68.9807 215.363 68.3557L214.613 64.0437ZM216.738 68.2308C216.8 68.5432 216.863 68.7307 217.05 68.8557C217.175 68.9807 217.363 68.9807 217.55 68.9807C217.738 68.9182 217.925 68.8557 217.988 68.7307C218.113 68.6057 218.113 68.3557 218.05 68.0433L217.238 63.5437C217.175 63.2312 217.113 63.0438 216.925 62.9188C216.8 62.7938 216.613 62.7938 216.426 62.7938C216.238 62.8563 216.051 62.9188 215.988 63.0438C215.863 63.1688 215.863 63.4187 215.926 63.7312L216.738 68.2308Z" fill="#263238"/>
<path d="M220.613 63.2938L221.675 69.2932L220.488 69.4807L219.05 61.169L220.675 60.8565L222.862 65.6061L221.987 60.669L223.175 60.4816L224.612 68.7932L223.3 69.0432L220.613 63.2938Z" fill="#263238"/>
<path d="M316.332 271.002C303.396 281.001 287.335 288.688 269.712 294C268.025 292.125 266.462 290.5 265.275 289.376C262.463 286.751 252.776 280.376 252.776 280.376C252.776 280.376 246.089 282.876 234.403 277.877C222.717 272.877 208.531 265.565 205.593 257.004C202.656 248.442 198.906 245.13 197.469 240.13C196.907 238.256 196.719 236.131 195.907 234.006C194.594 230.381 192.845 226.757 193.72 224.32C195.157 220.382 203.719 220.382 207.468 226.007C211.218 231.631 216.655 244.38 219.154 243.318C221.654 242.255 218.342 232.694 218.092 221.507L215.78 210.133L208.905 189.073L207.468 184.886C207.468 184.886 201.844 175.074 202.906 168.638C202.906 168.638 204.031 162.388 209.155 165.513C213.78 168.325 214.155 169.7 221.654 183.261C229.153 196.822 230.216 206.196 232.716 205.571C235.215 204.946 235.153 202.634 233.841 199.072C232.528 195.51 230.216 188.698 235.653 186.823C241.09 184.948 245.277 185.761 246.839 190.885C248.402 196.01 249.839 200.072 250.776 200.072C250.776 200.072 247.777 194.822 247.777 191.135C247.777 189.51 248.152 187.448 253.276 187.573C258.401 187.698 259.963 190.573 261.588 193.635C263.275 196.697 264.9 199.197 264.9 199.197C264.9 199.197 270.274 196.947 273.587 199.884C276.899 202.884 282.711 212.696 284.773 216.195C290.147 225.319 291.46 237.068 291.772 242.63C291.897 244.755 292.772 246.817 294.272 248.38C298.147 252.442 306.396 261.066 316.332 271.002Z" fill="white"/>
<mask id="mask2_5_252" style="mask-type:luminance" maskUnits="userSpaceOnUse" x="193" y="164" width="124" height="131">
<path d="M316.332 271.002C303.396 281.001 287.335 288.688 269.712 294C268.025 292.125 266.462 290.5 265.275 289.376C262.463 286.751 252.776 280.376 252.776 280.376C252.776 280.376 246.089 282.876 234.403 277.877C222.717 272.877 208.531 265.565 205.593 257.004C202.656 248.442 198.906 245.13 197.469 240.13C196.907 238.256 196.719 236.131 195.907 234.006C194.594 230.381 192.845 226.757 193.72 224.32C195.157 220.382 203.719 220.382 207.468 226.007C211.218 231.631 216.655 244.38 219.154 243.318C221.654 242.255 218.342 232.694 218.092 221.507L215.78 210.133L208.905 189.073L207.468 184.886C207.468 184.886 201.844 175.074 202.906 168.638C202.906 168.638 204.031 162.388 209.155 165.513C213.78 168.325 214.155 169.7 221.654 183.261C229.153 196.822 230.216 206.196 232.716 205.571C235.215 204.946 235.153 202.634 233.841 199.072C232.528 195.51 230.216 188.698 235.653 186.823C241.09 184.948 245.277 185.761 246.839 190.885C248.402 196.01 249.839 200.072 250.776 200.072C250.776 200.072 247.777 194.822 247.777 191.135C247.777 189.51 248.152 187.448 253.276 187.573C258.401 187.698 259.963 190.573 261.588 193.635C263.275 196.697 264.9 199.197 264.9 199.197C264.9 199.197 270.274 196.947 273.587 199.884C276.899 202.884 282.711 212.696 284.773 216.195C290.147 225.319 291.46 237.068 291.772 242.63C291.897 244.755 292.772 246.817 294.272 248.38C298.147 252.442 306.396 261.066 316.332 271.002Z" fill="white"/>
</mask>
<g mask="url(#mask2_5_252)">
<path opacity="0.5" d="M278.836 294.063C275.086 289.938 271.837 286.438 270.399 285.188C265.837 281.126 255.401 277.377 253.526 274.065C251.651 270.752 252.089 262.003 250.526 257.941C248.964 253.879 212.53 253.879 209.03 252.129C205.593 250.379 202.469 235.068 200.094 237.256C197.719 239.443 199.156 244.13 199.156 244.13L198.531 247.755L202.156 265.44L218.904 285.188L237.028 294.063H278.836Z" fill="#C2E9FE"/>
</g>
<path d="M196.407 231.506C196.657 230.881 197.157 230.069 198.157 229.069C200.656 226.632 201.656 226.007 200.094 222.945" stroke="#263238" stroke-miterlimit="10" stroke-linecap="round" stroke-linejoin="round"/>
<path d="M202.094 233.318C202.469 232.944 202.844 232.631 203.281 232.256" stroke="#263238" stroke-miterlimit="10" stroke-linecap="round" stroke-linejoin="round"/>
<path d="M198.531 238.881C198.969 237.756 199.719 236.006 201.281 234.193" stroke="#263238" stroke-miterlimit="10" stroke-linecap="round" stroke-linejoin="round"/>
<path d="M204.031 169.825C204.031 169.825 204.531 171.262 206.093 170.762C207.656 170.262 212.03 169.637 210.905 167.95" stroke="#263238" stroke-miterlimit="10" stroke-linecap="round" stroke-linejoin="round"/>
<path d="M215.78 185.573C217.03 184.886 218.592 184.261 220.342 184.073" stroke="#263238" stroke-miterlimit="10" stroke-linecap="round" stroke-linejoin="round"/>
<path d="M213.093 187.386C213.093 187.386 213.468 187.073 214.093 186.573" stroke="#263238" stroke-miterlimit="10" stroke-linecap="round" stroke-linejoin="round"/>
<path d="M256.401 203.571C259.151 202.821 261.213 201.759 266.15 203.384" stroke="#263238" stroke-miterlimit="10" stroke-linecap="round" stroke-linejoin="round"/>
<path d="M225.904 212.133C227.154 210.821 229.153 209.758 232.216 210.071C238.965 210.883 240.527 205.509 244.589 203.947C248.652 202.384 250.214 204.446 254.276 203.947" stroke="#263238" stroke-miterlimit="10" stroke-linecap="round" stroke-linejoin="round"/>
<path d="M223.904 215.57C223.904 215.57 224.091 214.758 224.716 213.758" stroke="#263238" stroke-miterlimit="10" stroke-linecap="round" stroke-linejoin="round"/>
<path d="M282.023 199.384C281.523 198.822 281.086 198.322 280.648 197.947" stroke="#263238" stroke-miterlimit="10" stroke-linecap="round" stroke-linejoin="round"/>
<path d="M295.897 223.757C294.897 220.507 293.585 217.32 291.835 214.32C290.21 211.571 286.273 204.821 283.023 200.697" stroke="#263238" stroke-miterlimit="10" stroke-linecap="round" stroke-linejoin="round"/>
<path d="M298.709 238.506C298.459 235.318 297.897 231.131 296.772 226.632" stroke="#263238" stroke-miterlimit="10" stroke-linecap="round" stroke-linejoin="round"/>
<path d="M298.834 240.755C298.834 240.443 298.772 240.13 298.772 239.818" stroke="#263238" stroke-miterlimit="10" stroke-linecap="round" stroke-linejoin="round"/>
<mask id="mask3_5_252" style="mask-type:luminance" maskUnits="userSpaceOnUse" x="193" y="164" width="124" height="131">
<path d="M269.712 294C268.025 292.125 266.462 290.5 265.275 289.376C262.463 286.751 252.776 280.376 252.776 280.376C252.776 280.376 246.089 282.876 234.403 277.877C222.717 272.877 208.531 265.565 205.593 257.004C202.656 248.442 198.906 245.13 197.469 240.13C196.907 238.256 196.719 236.131 195.907 234.006C194.594 230.381 192.845 226.757 193.72 224.32C195.157 220.382 203.719 220.382 207.468 226.007C211.218 231.631 216.655 244.38 219.154 243.318C221.654 242.255 218.342 232.694 218.092 221.507L215.78 210.133L208.905 189.073L207.468 184.886C207.468 184.886 201.844 175.074 202.906 168.638C202.906 168.638 204.031 162.388 209.155 165.513C213.78 168.325 214.155 169.7 221.654 183.261C229.153 196.822 230.216 206.196 232.716 205.571C235.215 204.946 235.153 202.634 233.841 199.072C232.528 195.51 230.216 188.698 235.653 186.823C241.09 184.948 245.277 185.761 246.839 190.885C248.402 196.01 249.839 200.072 250.776 200.072C250.776 200.072 247.777 194.822 247.777 191.135C247.777 189.51 248.152 187.448 253.276 187.573C258.401 187.698 259.963 190.573 261.588 193.635C263.275 196.697 264.9 199.197 264.9 199.197C264.9 199.197 270.274 196.947 273.587 199.884C276.899 202.884 282.711 212.696 284.773 216.195C290.147 225.319 291.46 237.068 291.772 242.63C291.897 244.755 292.772 246.817 294.272 248.38C298.147 252.442 306.396 261.066 316.332 271.002" fill="white"/>
</mask>
<g mask="url(#mask3_5_252)">
<path d="M237.84 203.322C238.715 201.447 238.403 199.322 237.84 197.385C237.278 195.447 236.528 193.51 236.465 191.448C236.403 189.448 237.278 187.198 239.09 186.323C241.09 185.448 243.527 186.511 244.839 188.198C246.214 189.885 246.777 192.073 247.464 194.135C248.152 196.197 248.964 198.322 250.651 199.759C250.026 197.322 249.401 194.76 249.964 192.26C250.526 189.76 252.714 187.511 255.213 187.698C254.776 184.823 251.964 182.949 249.277 181.761C244.402 179.574 238.34 178.387 233.966 181.449C230.341 184.011 228.966 188.886 229.029 193.323C229.091 196.447 229.466 201.322 231.403 203.947C233.216 206.384 236.465 206.384 237.84 203.322Z" fill="#C2E9FE"/>
<path opacity="0.5" d="M237.84 203.322C238.715 201.447 238.403 199.322 237.84 197.385C237.278 195.447 236.528 193.51 236.465 191.448C236.403 189.448 237.278 187.198 239.09 186.323C241.09 185.448 243.527 186.511 244.839 188.198C246.214 189.885 246.777 192.073 247.464 194.135C248.152 196.197 248.964 198.322 250.651 199.759C250.026 197.322 249.401 194.76 249.964 192.26C250.526 189.76 252.714 187.511 255.213 187.698C254.776 184.823 251.964 182.949 249.277 181.761C244.402 179.574 238.34 178.387 233.966 181.449C230.341 184.011 228.966 188.886 229.029 193.323C229.091 196.447 229.466 201.322 231.403 203.947C233.216 206.384 236.465 206.384 237.84 203.322Z" fill="white"/>
</g>
<path d="M269.712 294C268.025 292.125 266.462 290.5 265.275 289.376C262.463 286.751 252.776 280.376 252.776 280.376C252.776 280.376 246.089 282.876 234.403 277.877C222.717 272.877 208.531 265.565 205.593 257.004C202.656 248.442 198.906 245.13 197.469 240.13C196.907 238.256 196.719 236.131 195.907 234.006C194.594 230.381 192.845 226.757 193.72 224.32C195.157 220.382 203.719 220.382 207.468 226.007C211.218 231.631 216.655 244.38 219.154 243.318C221.654 242.255 218.342 232.694 218.092 221.507L215.78 210.133L208.905 189.073L207.468 184.886C207.468 184.886 201.844 175.074 202.906 168.638C202.906 168.638 204.031 162.388 209.155 165.513C213.78 168.325 214.155 169.7 221.654 183.261C229.153 196.822 230.216 206.196 232.716 205.571C235.215 204.946 235.153 202.634 233.841 199.072C232.528 195.51 230.216 188.698 235.653 186.823C241.09 184.948 245.277 185.761 246.839 190.885C248.402 196.01 249.839 200.072 250.776 200.072C250.776 200.072 247.777 194.822 247.777 191.135C247.777 189.51 248.152 187.448 253.276 187.573C258.401 187.698 259.963 190.573 261.588 193.635C263.275 196.697 264.9 199.197 264.9 199.197C264.9 199.197 270.274 196.947 273.587 199.884C276.899 202.884 282.711 212.696 284.773 216.195C290.147 225.319 291.46 237.068 291.772 242.63C291.897 244.755 292.772 246.817 294.272 248.38C298.147 252.442 306.396 261.066 316.332 271.002" stroke="#263238" stroke-miterlimit="10"/>
<path d="M196.407 231.506C196.657 230.881 197.157 230.069 198.157 229.069C200.656 226.632 201.656 226.007 200.094 222.945" stroke="#263238" stroke-miterlimit="10" stroke-linecap="round" stroke-linejoin="round"/>
<path d="M202.094 233.318C202.469 232.944 202.844 232.631 203.281 232.256" stroke="#263238" stroke-miterlimit="10" stroke-linecap="round" stroke-linejoin="round"/>
<path d="M198.531 238.881C198.969 237.756 199.719 236.006 201.281 234.193" stroke="#263238" stroke-miterlimit="10" stroke-linecap="round" stroke-linejoin="round"/>
<path d="M204.031 169.825C204.031 169.825 204.531 171.262 206.093 170.762C207.656 170.262 212.03 169.637 210.905 167.95" stroke="#263238" stroke-miterlimit="10" stroke-linecap="round" stroke-linejoin="round"/>
<path d="M215.78 185.573C217.03 184.886 218.592 184.261 220.342 184.073" stroke="#263238" stroke-miterlimit="10" stroke-linecap="round" stroke-linejoin="round"/>
<path d="M213.093 187.386C213.093 187.386 213.468 187.073 214.093 186.573" stroke="#263238" stroke-miterlimit="10" stroke-linecap="round" stroke-linejoin="round"/>
<path d="M256.463 203.634C259.213 202.947 261.275 201.884 266.212 203.572" stroke="#263238" stroke-miterlimit="10" stroke-linecap="round" stroke-linejoin="round"/>
<path d="M225.841 211.883C227.091 210.571 229.091 209.509 232.153 209.883C238.903 210.758 240.465 205.446 244.589 203.884C248.652 202.384 250.214 204.384 254.276 204.009" stroke="#263238" stroke-miterlimit="10" stroke-linecap="round" stroke-linejoin="round"/>
<path d="M223.842 215.32C223.842 215.32 224.029 214.508 224.654 213.508" stroke="#263238" stroke-miterlimit="10" stroke-linecap="round" stroke-linejoin="round"/>
<path d="M262.713 195.635C263.525 197.26 266.15 200.884 266.15 200.884" stroke="#263238" stroke-miterlimit="10" stroke-linecap="round" stroke-linejoin="round"/>
<path d="M282.023 199.384C281.523 198.822 281.086 198.322 280.648 197.947" stroke="#263238" stroke-miterlimit="10" stroke-linecap="round" stroke-linejoin="round"/>
<path d="M295.897 223.757C294.897 220.507 293.585 217.32 291.835 214.32C290.21 211.571 286.273 204.821 283.023 200.697" stroke="#263238" stroke-miterlimit="10" stroke-linecap="round" stroke-linejoin="round"/>
<path d="M298.709 238.506C298.459 235.318 297.897 231.131 296.772 226.632" stroke="#263238" stroke-miterlimit="10" stroke-linecap="round" stroke-linejoin="round"/>
<path d="M298.834 240.755C298.834 240.443 298.772 240.13 298.772 239.818" stroke="#263238" stroke-miterlimit="10" stroke-linecap="round" stroke-linejoin="round"/>
</g>
<defs>
<clipPath id="clip0_5_252">
<rect width="420" height="300" fill="white"/>
</clipPath>
</defs>
</svg>
