<svg width="685" height="491" viewBox="0 0 685 491" fill="none" xmlns="http://www.w3.org/2000/svg">
<path d="M653.254 110.991C635.769 83.1941 613.057 61.4309 587.589 46.7784C552.618 26.6313 497.215 -0.842119 456.068 0.0197906C391.162 1.31266 245.006 91.7055 168.697 108.944C92.3885 126.182 -19.8417 190.286 3.53565 320.974C26.913 451.661 88.8724 490.662 207.375 473.424C325.877 456.186 368.07 439.055 464.145 460.818C560.22 482.582 670.645 467.714 682.334 311.816C690.886 197.72 678.247 150.531 653.254 110.991Z" fill="white" fill-opacity="0.3"/>
<path opacity="0.7" d="M653.254 110.991C635.769 83.1941 613.057 61.4309 587.589 46.7784C552.618 26.6313 497.215 -0.842119 456.068 0.0197906C391.162 1.31266 245.006 91.7055 168.697 108.944C92.3885 126.182 -19.8417 190.286 3.53565 320.974C26.913 451.661 88.8724 490.662 207.375 473.424C325.877 456.186 368.07 439.055 464.145 460.818C560.22 482.582 670.645 467.714 682.334 311.816C690.886 197.72 678.247 150.531 653.254 110.991Z" fill="white" fill-opacity="0.3"/>
<path d="M324.767 89.8L322.067 122.7C322.067 122.7 345.467 118.9 351.667 131.3C357.867 143.7 357.867 176.2 343.367 193.5C332.867 205.9 321.767 200.8 316.267 197L313.467 232.9C313.467 246.3 287.667 271 255.967 271C224.167 271 198.467 246.3 198.467 232.9L187.267 89.9H324.767V89.8ZM335.167 179C344.167 171.4 339.267 138.2 335.167 134.1C332.067 131 324.867 133.3 321.267 134.6L317.567 181.9C322.167 183.1 329.467 183.8 335.167 179Z" fill="#333333" stroke="#333333" stroke-miterlimit="10"/>
<path d="M256.067 118.8C218.069 118.8 187.267 105.816 187.267 89.8C187.267 73.7837 218.069 60.8 256.067 60.8C294.064 60.8 324.867 73.7837 324.867 89.8C324.867 105.816 294.064 118.8 256.067 118.8Z" fill="white" stroke="#263238" stroke-miterlimit="10"/>
<path d="M256.067 115.6C222.267 115.6 194.867 104.049 194.867 89.8C194.867 75.5511 222.267 64 256.067 64C289.866 64 317.267 75.5511 317.267 89.8C317.267 104.049 289.866 115.6 256.067 115.6Z" fill="white" stroke="#263238" stroke-miterlimit="10"/>
<path d="M298.967 108.2C287.967 112.8 272.767 115.7 255.967 115.7C239.167 115.7 224.067 112.9 212.967 108.2C223.967 103.6 239.167 100.7 255.967 100.7C272.767 100.8 287.967 103.6 298.967 108.2Z" fill="#B68931" stroke="#263238" stroke-miterlimit="10"/>
<path d="M390 206.2C390 206.2 422.7 283.9 430.6 288C438.5 292.1 669.2 272.1 669.2 272.1L662.7 264.8L662.4 214.5L671 214.1L582.8 98.1L383.6 112.6C383.6 112.6 372.9 120 371.5 126.4C370.1 132.8 370.4 142.5 370.4 142.5L390 206.2Z" fill="#333333" stroke="#333333" stroke-miterlimit="10"/>
<path d="M662.3 214.5L436 232.8C436 232.8 425.4 238.9 423.7 253C422 267.1 427.8 281.5 432 283.5C436.2 285.6 441.8 285.7 441.8 285.7L662.7 264.7L662.3 214.5Z" fill="#E0E0E0" stroke="#333333" stroke-miterlimit="10"/>
<path d="M432 39.1L340.7 165.2C340.7 165.2 335.7 170.1 336 182.1C336.2 194.1 336.8 213.7 340.4 215.1C344 216.5 608.1 236.5 608.1 236.5L669.1 95.6L664.3 93.6L666 58.9L670 47.7L438.7 36.8L432 39.1Z" fill="#0097EC" stroke="#263238" stroke-miterlimit="10"/>
<path d="M348.9 168.8C348.9 168.8 340.6 166.2 338.3 174.2C336 182.1 341.7 210.9 341.7 210.9C341.7 210.9 346.6 213 348.9 213C351.2 213.1 605.4 229.9 605.4 229.9L664.3 93.6L666 58.9L609.6 181L348.9 168.8Z" fill="white" stroke="#263238" stroke-miterlimit="10"/>
<path d="M603.8 180.7L348.9 168.7C348.9 168.7 340.6 166.1 338.3 174.1C336 182 341.7 210.8 341.7 210.8C341.7 210.8 346.6 212.9 348.9 212.9C351.2 213 605.4 229.8 605.4 229.8L605 181.8L603.8 180.7Z" fill="#E0E0E0" stroke="#263238" stroke-miterlimit="10"/>
<path d="M403.2 447C403.2 447 412.5 460.5 422.3 460.3C487.4 458.9 599.6 490 612.6 490C625.6 490 635.3 488.8 635.3 486.1C635.3 483.3 589.5 302.1 589.5 302.1L580.4 299.3L611.6 476.2C611.6 476.2 572.9 470.7 494.7 457.6C416.5 444.6 419.7 433.6 410.3 435.5C400.8 437.6 403.2 447 403.2 447Z" fill="#0097EC" stroke="#333333" stroke-miterlimit="10"/>
<path d="M621.8 485.3C608.4 484.5 582.3 477.7 517.9 464.5C453.5 451.3 405.2 443.3 405.2 443.3L403.8 447.9C406 450.8 414 460.5 422.3 460.3C487.4 458.9 599.6 490 612.6 490C625.6 490 635.3 488.8 635.3 486.1C635.2 485.8 628.5 485.7 621.8 485.3Z" fill="#333333" stroke="#333333" stroke-miterlimit="10"/>
<path d="M192.3 295C192.3 295 187.6 296.6 186.8 300.1C186 303.7 140.6 485.6 145 486C149.3 486.4 388.6 488 391.3 485.2C394.1 482.4 403.1 446.9 403.1 446.9L383 474.3L175.3 469.2L200.2 299.4L192.3 295Z" fill="#0097EC" stroke="#333333" stroke-miterlimit="10"/>
<path d="M391.3 485.3C394.1 482.5 403.1 447 403.1 447L401.8 448.8L389.3 481L147.3 484.1L144.9 486.1C149.3 486.5 388.5 488.1 391.3 485.3Z" fill="#333333" stroke="#333333" stroke-miterlimit="10"/>
<path d="M197.9 292.7L192.3 295L154 480.2L389.3 481L405.1 440.3L184.1 451L204.6 292.3L197.9 292.7Z" fill="white" stroke="#333333" stroke-miterlimit="10"/>
<path d="M169.8 456.9L159.1 474.7L154 480.2L389.3 481L405.1 440.3L184.1 451L169.8 456.9Z" fill="#E0E0E0" stroke="#333333" stroke-miterlimit="10"/>
<path d="M405.1 440.3V404L215.2 424.9L201 449.8L405.1 440.3Z" fill="#B8B8B8" stroke="#333333" stroke-miterlimit="10"/>
<path d="M206.6 272.5L201.1 273.3L169.9 456.9C169.9 456.9 195.6 454.9 230.3 446.6C265 438.3 335.7 425.7 359.4 429.2C383.1 432.8 403.2 447 403.2 447C403.2 447 432.8 452.9 465.9 459.6C499.1 466.3 548.4 476.6 581.2 482.1C614 487.6 621.9 485.3 621.9 485.3L581.2 296.2L577.3 295L599 466.3C599 466.3 462.1 428.5 443.9 428.5C425.7 428.5 415.9 409.2 379.6 402C343.3 394.9 302.6 409.1 268.3 415C234 420.9 204.7 430.8 204.7 430.8L213.8 272.5H206.6Z" fill="#E0E0E0" stroke="#333333" stroke-miterlimit="10"/>
<path d="M184.1 451L169.8 456.9L201 273.3L213.7 272.5L184.1 451Z" fill="white" stroke="#333333" stroke-miterlimit="10"/>
<path d="M400.4 248.1C400.4 248.1 404 241.8 436.3 250.1C468.7 258.4 502.6 279.3 530.2 283.2C557.8 287.1 576 291.1 576 291.1L613.5 481.4C613.5 481.4 552.3 473.1 494.7 457.7C437.1 442.3 412.6 432.1 405.1 440.4L400.4 248.1Z" fill="white" stroke="#333333" stroke-miterlimit="10"/>
<path d="M498.2 300C498.2 300 500.2 300 566 314.4" stroke="#333333" stroke-miterlimit="10"/>
<path d="M498.8 308C498.8 308 500.6 308.1 523.3 313C533.7 315.2 548.9 318.7 567.3 322.7" stroke="#333333" stroke-miterlimit="10"/>
<path d="M499.5 316.1C499.5 316.1 502.2 316.3 524.3 321C535.3 323.4 551.5 327.2 568.7 331" stroke="#333333" stroke-miterlimit="10"/>
<path d="M500.1 324.1C500.1 324.1 503.7 324.4 525.2 329C536.7 331.5 554.1 335.7 570.1 339.2" stroke="#333333" stroke-miterlimit="10"/>
<path d="M500.8 332.1C500.8 332.1 505.2 332.5 526.2 337C538.2 339.6 556.8 344.2 571.5 347.5" stroke="#333333" stroke-miterlimit="10"/>
<path d="M501.5 340.1C501.5 340.1 506.8 340.5 527.2 344.9C539.8 347.6 559.5 352.6 573 355.6" stroke="#333333" stroke-miterlimit="10"/>
<path d="M502.1 348.1C502.1 348.1 508.3 348.6 528.1 352.9C541.2 355.7 562.1 361.2 574.4 363.9" stroke="#333333" stroke-miterlimit="10"/>
<path d="M502.8 356.1C502.8 356.1 509.8 356.7 529.1 360.9C542.7 363.8 564.8 369.7 575.8 372.1" stroke="#333333" stroke-miterlimit="10"/>
<path d="M503.4 364.1C503.4 364.1 511.3 364.8 530 368.8C544.2 371.9 567.3 378.1 577.2 380.3" stroke="#333333" stroke-miterlimit="10"/>
<path d="M504.1 372.1C504.1 372.1 512.8 372.9 531 376.8C545.7 380 570 386.6 578.6 388.5" stroke="#333333" stroke-miterlimit="10"/>
<path d="M504.7 380.1C504.7 380.1 514.3 381 531.9 384.8C547.1 388.1 572.6 395.1 580 396.8" stroke="#333333" stroke-miterlimit="10"/>
<path d="M505.4 388.1C505.4 388.1 515.9 389.1 532.8 392.7C548.6 396.1 575.2 403.6 581.3 404.9" stroke="#333333" stroke-miterlimit="10"/>
<path d="M506 396.1C506 396.1 517.3 397.2 533.7 400.7C550 404.2 577.8 412.1 582.7 413.2" stroke="#333333" stroke-miterlimit="10"/>
<path d="M506.7 404.1C506.7 404.1 518.9 405.3 534.7 408.7C551.5 412.3 580.5 420.6 584.2 421.4" stroke="#333333" stroke-miterlimit="10"/>
<path d="M507.3 412.1C507.3 412.1 520.3 413.4 535.6 416.6C553 420.4 583.1 429 585.5 429.6" stroke="#333333" stroke-miterlimit="10"/>
<path d="M508 420.1C508 420.1 521.9 421.4 536.6 424.6C554.5 428.5 585.7 437.5 587 437.8" stroke="#333333" stroke-miterlimit="10"/>
<path d="M508.6 428.1C508.6 428.1 523.4 429.5 537.5 432.6C555.9 436.6 588.3 446.1 588.3 446.1" stroke="#333333" stroke-miterlimit="10"/>
<path d="M412.8 268.2C412.8 268.2 427.1 268.7 440.7 273C453.2 277 462.9 285.5 488.3 297.2" stroke="#333333" stroke-miterlimit="10"/>
<path d="M488.9 305.4C465.1 294.4 455.5 286.2 442 281.9C427.6 277.2 413.4 276.7 412.8 276.8" stroke="#333333" stroke-miterlimit="10"/>
<path d="M489.5 313.6C467.2 303.4 457.8 295.4 443.4 290.7C428.1 285.7 414 285 412.9 285.4" stroke="#333333" stroke-miterlimit="10"/>
<path d="M490.1 321.7C469.4 312.2 460.1 304.5 444.7 299.5C428.5 294.2 414.5 293.4 412.8 294" stroke="#333333" stroke-miterlimit="10"/>
<path d="M490.8 329.8C471.7 321 462.4 313.7 446.2 308.3C429.2 302.7 415.2 301.8 413 302.5" stroke="#333333" stroke-miterlimit="10"/>
<path d="M491.4 337.9C473.9 329.9 464.7 322.8 447.6 317.1C429.7 311.2 415.8 310.2 413.1 311.1" stroke="#333333" stroke-miterlimit="10"/>
<path d="M492 346C476.1 338.7 467 331.9 448.9 325.9C430.1 319.7 416.4 318.6 413 319.7" stroke="#333333" stroke-miterlimit="10"/>
<path d="M492.7 354.2C478.4 347.6 469.4 341.1 450.4 334.7C430.8 328.2 417.1 327 413.2 328.3" stroke="#333333" stroke-miterlimit="10"/>
<path d="M493.3 362.3C480.6 356.4 471.7 350.2 451.7 343.5C431.2 336.7 417.6 335.4 413.2 336.8" stroke="#333333" stroke-miterlimit="10"/>
<path d="M493.9 370.4C482.8 365.3 474 359.3 453.1 352.3C431.7 345.2 418.2 343.8 413.2 345.4" stroke="#333333" stroke-miterlimit="10"/>
<path d="M494.6 378.5C485.1 374.1 476.4 368.4 454.5 361.1C432.3 353.7 418.8 352.2 413.3 354" stroke="#333333" stroke-miterlimit="10"/>
<path d="M495.2 386.7C487.3 383 478.7 377.6 455.9 370C432.8 362.2 419.4 360.7 413.3 362.7" stroke="#333333" stroke-miterlimit="10"/>
<path d="M495.8 394.8C489.4 391.9 481 386.7 457.3 378.8C433.3 370.7 420.1 369.1 413.4 371.2" stroke="#333333" stroke-miterlimit="10"/>
<path d="M496.5 402.9C491.7 400.7 483.4 395.8 458.7 387.5C433.9 379.1 420.7 377.4 413.5 379.7" stroke="#333333" stroke-miterlimit="10"/>
<path d="M497.1 411C493.9 409.5 485.6 404.9 460.1 396.3C434.4 387.6 421.3 385.8 413.5 388.3" stroke="#333333" stroke-miterlimit="10"/>
<path d="M497.7 419.2C496.1 418.5 487.9 414.2 461.4 405.2C434.8 396.2 421.8 394.3 413.5 397" stroke="#333333" stroke-miterlimit="10"/>
<path d="M498.3 427.3C498.3 427.3 490.2 423.3 462.8 414C435.4 404.7 422.4 402.7 413.6 405.5" stroke="#333333" stroke-miterlimit="10"/>
<path d="M400.4 248.1L405.1 440.4C405.1 440.4 390.9 411.2 353 412.4C315.1 413.6 231.4 442.8 218 445.6C204.6 448.4 184 451.1 184 451.1L206.5 267.5C206.5 267.5 306 249.3 326.9 243C347.8 236.7 366 230 379.4 233.1C392.9 236.2 400.4 238.6 400.4 248.1Z" fill="white" stroke="#333333" stroke-miterlimit="10"/>
<path d="M228.2 289.5L302 273.1" stroke="#333333" stroke-miterlimit="10"/>
<path d="M227.4 297.8C227.4 297.8 274.2 287.2 275.3 286.9C276.3 286.6 301.8 280.9 301.8 280.9" stroke="#333333" stroke-miterlimit="10"/>
<path d="M226.6 306C226.6 306 272.7 295.5 274.9 294.8C276.9 294.2 301.6 288.7 301.6 288.7" stroke="#333333" stroke-miterlimit="10"/>
<path d="M225.8 314.2C225.8 314.2 271.2 303.7 274.5 302.7C277.5 301.8 301.4 296.5 301.4 296.5" stroke="#333333" stroke-miterlimit="10"/>
<path d="M225 322.4C225 322.4 269.7 312 274.1 310.6C278.1 309.3 301.2 304.2 301.2 304.2" stroke="#333333" stroke-miterlimit="10"/>
<path d="M224.2 330.6C224.2 330.6 268.2 320.2 273.7 318.5C278.7 316.9 301.1 312 301.1 312" stroke="#333333" stroke-miterlimit="10"/>
<path d="M223.4 338.9C223.4 338.9 266.7 328.5 273.3 326.5C279.3 324.6 300.9 319.9 300.9 319.9" stroke="#333333" stroke-miterlimit="10"/>
<path d="M222.5 347.1C222.5 347.1 265.1 336.8 272.8 334.4C279.8 332.2 300.6 327.6 300.6 327.6" stroke="#333333" stroke-miterlimit="10"/>
<path d="M221.7 355.3C221.7 355.3 263.6 345 272.4 342.3C280.4 339.8 300.5 335.4 300.5 335.4" stroke="#333333" stroke-miterlimit="10"/>
<path d="M220.9 363.5C220.9 363.5 262.1 353.3 272 350.2C281 347.4 300.3 343.2 300.3 343.2" stroke="#333333" stroke-miterlimit="10"/>
<path d="M220.1 371.8C220.1 371.8 260.7 361.6 271.5 358.2C281.5 355.1 300 351 300 351" stroke="#333333" stroke-miterlimit="10"/>
<path d="M219.3 380C219.3 380 259.2 369.8 271.1 366.1C282.1 362.6 299.8 358.8 299.8 358.8" stroke="#333333" stroke-miterlimit="10"/>
<path d="M218.5 388.2C218.5 388.2 257.7 378.1 270.7 374C282.7 370.2 299.7 366.6 299.7 366.6" stroke="#333333" stroke-miterlimit="10"/>
<path d="M217.7 396.4C217.7 396.4 256.2 386.3 270.3 381.9C283.3 377.8 299.5 374.3 299.5 374.3" stroke="#333333" stroke-miterlimit="10"/>
<path d="M216.9 404.6C216.9 404.6 254.7 394.6 269.9 389.8C283.9 385.4 299.3 382.1 299.3 382.1" stroke="#333333" stroke-miterlimit="10"/>
<path d="M216.1 412.9C216.1 412.9 253.2 402.9 269.5 397.8C284.5 393.1 299.2 390 299.2 390" stroke="#333333" stroke-miterlimit="10"/>
<path d="M215.3 421.1C215.3 421.1 251.7 411.1 269.1 405.7C285.1 400.7 299 397.7 299 397.7" stroke="#333333" stroke-miterlimit="10"/>
<path d="M312.4 270.1C312.4 270.1 381.2 248.2 391.1 259.1" stroke="#333333" stroke-miterlimit="10"/>
<path d="M312.2 278.1C312.2 278.1 335.5 270.6 356.5 266.6C372.5 263.6 387.2 263 391.1 267.3" stroke="#333333" stroke-miterlimit="10"/>
<path d="M312 286.1C312 286.1 335.8 278.4 356.5 274.5C372.9 271.5 387.6 271.5 391.3 275.5" stroke="#333333" stroke-miterlimit="10"/>
<path d="M311.8 294C311.8 294 336 286 356.4 282.3C373.3 279.3 387.8 279.9 391.3 283.7" stroke="#333333" stroke-miterlimit="10"/>
<path d="M311.5 302C311.5 302 336.1 293.8 356.2 290.2C373.5 287.2 388 288.4 391.2 291.9" stroke="#333333" stroke-miterlimit="10"/>
<path d="M311.3 310C311.3 310 336.3 301.5 356.2 298.1C373.9 295.1 388.4 296.9 391.3 300.1" stroke="#333333" stroke-miterlimit="10"/>
<path d="M311.1 317.9C311.1 317.9 336.5 309.2 356.1 305.9C374.2 302.8 388.7 305.3 391.3 308.2" stroke="#333333" stroke-miterlimit="10"/>
<path d="M310.9 325.9C310.9 325.9 336.8 317 356 313.8C374.6 310.7 389 313.8 391.3 316.4" stroke="#333333" stroke-miterlimit="10"/>
<path d="M310.7 333.9C310.7 333.9 337 324.8 356 321.7C375 318.6 389.3 322.3 391.4 324.6" stroke="#333333" stroke-miterlimit="10"/>
<path d="M310.5 341.9C310.5 341.9 337.2 332.6 355.9 329.6C375.3 326.5 389.6 330.8 391.5 332.9" stroke="#333333" stroke-miterlimit="10"/>
<path d="M310.2 349.8C310.2 349.8 337.3 340.3 355.7 337.4C375.5 334.3 389.8 339.2 391.4 341" stroke="#333333" stroke-miterlimit="10"/>
<path d="M310 357.8C310 357.8 337.6 348.1 355.7 345.3C376 342.2 390.2 347.7 391.5 349.2" stroke="#333333" stroke-miterlimit="10"/>
<path d="M309.8 365.8C309.8 365.8 337.8 355.9 355.6 353.2C376.3 350.1 390.5 356.3 391.5 357.4" stroke="#333333" stroke-miterlimit="10"/>
<path d="M309.6 373.7C309.6 373.7 338 363.6 355.5 361C376.6 358 390.7 364.7 391.5 365.5" stroke="#333333" stroke-miterlimit="10"/>
<path d="M309.4 381.7C309.4 381.7 338.2 371.4 355.5 368.9C377.1 365.9 391.1 373.2 391.6 373.7" stroke="#333333" stroke-miterlimit="10"/>
<path d="M309.1 389.7C309.1 389.7 338.4 379.2 355.3 376.8C377.3 373.8 391.3 381.7 391.6 382" stroke="#333333" stroke-miterlimit="10"/>
<path d="M308.9 397.7C308.9 397.7 338.6 387 355.2 384.7C377.6 381.7 391.6 390.2 391.6 390.2" stroke="#333333" stroke-miterlimit="10"/>
<path d="M474 456.7C478.9 457.7 481.9 458.5 481.9 458.5" stroke="#333333" stroke-miterlimit="10"/>
<path d="M398.1 440.3C401.4 444.2 403.2 447 403.2 447C403.2 447 421 439.8 442.6 440.4C455 440.8 461.1 454 470.4 455.9" stroke="#333333" stroke-miterlimit="10"/>
<path d="M387.4 430.2C390.5 432.6 393.2 435.1 395.4 437.4" stroke="#333333" stroke-miterlimit="10"/>
<path d="M327.8 421.4C334.8 419.5 355.7 415.7 374.1 422.7C379.1 424.6 383.6 427.3 387.4 430.2" stroke="#333333" stroke-miterlimit="10"/>
<path d="M376.5 428.5C370.4 426.3 361.4 424 349.4 423.7C325.4 423.1 269.6 435.7 269.6 435.7" stroke="#333333" stroke-miterlimit="10"/>
<path d="M385.6 432.8C385.6 432.8 384 431.7 380.9 430.3" stroke="#333333" stroke-miterlimit="10"/>
<path d="M382.1 449L231 456.3" stroke="#333333" stroke-miterlimit="10"/>
<path d="M396.3 448.3L388 448.7" stroke="#333333" stroke-miterlimit="10"/>
<path d="M269.3 463.4L278.1 463.2" stroke="#333333" stroke-miterlimit="10"/>
<path d="M194.4 465.3L264.3 463.5" stroke="#333333" stroke-miterlimit="10"/>
<path d="M367.9 467.7L375.6 467.4" stroke="#333333" stroke-miterlimit="10"/>
<path d="M263.3 471.1L361.6 467.9" stroke="#333333" stroke-miterlimit="10"/>
<path d="M333.7 460.4L313.1 461.1" stroke="#333333" stroke-miterlimit="10"/>
<path d="M390.5 458.4L339.3 460.2" stroke="#333333" stroke-miterlimit="10"/>
<path d="M238.1 471.9L245.3 471.7" stroke="#333333" stroke-miterlimit="10"/>
<path d="M167.4 473.8L233.7 472" stroke="#333333" stroke-miterlimit="10"/>
<path d="M286.1 253.3C286.1 253.3 300.8 234 310.1 225.9C319.4 217.8 335.3 205.2 341.7 205.2C348.1 205.2 349.8 209.2 350.2 210.6C350.6 212 356 232.3 356 233.4C356 234.5 350.4 236 350 234.8C349.6 233.6 347.2 216.3 346.2 213.1C345.2 209.9 345.4 208.1 337.7 211.3C330 214.5 307.5 238.7 302.9 244.3C298.3 249.9 293.8 255.8 293.8 255.8C293.8 255.8 288.3 253.3 286.1 253.3Z" fill="#333333" stroke="#333333" stroke-miterlimit="10"/>
<path d="M534.9 273C534.4 272.3 533.8 271.5 533.4 271.4C532.7 271.2 528 279.2 526.8 281.2C528.1 279.7 529 278.9 529 279C529 279.6 526.6 291.5 524.4 297.1C522.2 302.7 522.8 305.4 525 305.2C527.2 305 530.2 294.9 532 289.3C533.3 285.2 534.7 278 534.9 273Z" fill="white" stroke="#333333" stroke-miterlimit="10"/>
<path d="M534.8 268.8C534 265.2 528.8 269.8 526.5 273C524.3 276.2 514.2 287.1 508.6 292.5C503 297.9 481.8 316.1 479.6 317.7C477.4 319.3 474.8 322.1 473.2 322.3C471.6 322.5 467.4 322.3 465.3 321.1C463.3 319.9 462.3 317.7 452.6 312.4C442.9 307.2 401.1 295.1 398 294.9C395 294.7 392.6 297.7 388.3 299.5C384.1 301.3 377 301.7 374 299.1C371 296.5 367.4 289.8 365.3 285C363.2 280.2 360.1 279 357.2 277.3C354.4 275.7 320.6 260.8 314.3 258.8C308.1 256.8 301.8 255.4 299 255.2C296.2 255 293.6 255.6 293.6 255.6C293.6 255.6 293.2 256.2 291.6 255C290 253.8 284.8 251.6 283.1 254.8C281.5 258 279.1 265.5 280.5 268.3C281.9 271.1 281.9 271.1 281.9 271.1C281.9 271.1 280.5 289.2 281.1 295.5C281.7 301.7 286.5 309.8 290.6 314.6C294.6 319.4 310.7 328.5 322.6 331.3C334.5 334.1 341.7 332.5 345 330.3C348.2 328.1 358.1 317 360.5 314.4C362.9 311.8 362.7 310.2 370.6 312.6C378.5 315 381.3 320.7 382.7 324.9C384.1 329.1 389.3 346 393.6 351.5C397.8 356.9 403.9 363.4 414.1 367.8C424.4 372.2 431.2 375.7 440.9 374.4C450.6 373.2 455.8 368.8 458.8 363.5C461.8 358.3 463.8 347.8 464.8 344.6C465.8 341.4 469 339.4 469 339.4C469 339.4 473 337.6 474.2 334.8C475.4 332 484.9 323.3 484.9 323.3C484.9 323.3 500.2 311.2 506 304.6C511.8 298 528.8 278.4 528.8 279C528.8 279.6 526.4 291.5 524.2 297.1C522 302.7 522.6 305.4 524.8 305.2C527 305 530 294.9 531.8 289.3C533.8 283.7 535.6 272.4 534.8 268.8ZM363.6 302C363.6 302 363.2 303.6 362 305.4C360.8 307.2 352.7 320.1 347.7 324.1C342.7 328.1 336.8 331.6 330.8 330.9C324.8 330.3 309.3 324.5 297.8 315.4C286.3 306.3 284.7 294.5 285.9 283C287.1 271.5 291.1 263.7 297.2 262.5C303.2 261.3 323.2 266.3 336.9 273.6C350.6 280.8 362.3 289.7 363.1 292.7C363.8 295.8 363.6 302 363.6 302ZM460.1 343.3C458.9 353.8 456.5 359.8 452.9 364.6C449.3 369.4 445 371.6 433.8 370.6C422.6 369.6 414.1 365.4 406.2 359.7C398.3 354.1 395.7 346.6 392.7 339.6C389.7 332.6 384.4 318.5 387.5 309.6C390.5 300.7 399.4 303 399.4 303C399.4 303 406.9 304.6 407.5 304.8C408.1 305 452.6 318.1 454.6 321.1C456.5 324.2 461.3 332.8 460.1 343.3Z" fill="#333333" stroke="#333333" stroke-miterlimit="10"/>
<path d="M360.8 283.9C360.8 283.9 362.6 285.1 364.4 290.1C366.2 295.1 368.8 303.4 376.1 305C383.3 306.6 390.6 300.4 390.6 300.4" stroke="white" stroke-miterlimit="10"/>
<path d="M399.3 299.6C399.3 299.6 431.7 307.7 446 314.1C460.3 320.5 461.7 326.2 462.3 326.6C462.9 327 468.9 329.6 472 327.4" stroke="white" stroke-miterlimit="10"/>
<path d="M284.3 256.9C284.3 256.9 287.9 260.1 290.7 259.3C293.5 258.5 297.5 257.7 301.8 258.9C306 260.1 321.5 263.5 338.4 271.2C355.3 278.9 359.1 282.1 359.1 282.1" stroke="white" stroke-miterlimit="10"/>
<path d="M284.3 292.2C284.3 292.2 283.5 305.5 292.6 313.3" stroke="white" stroke-miterlimit="10"/>
</svg>
